HIERARCHY
ROOT Hips
{
	OFFSET 0.00000 0.00000 0.00000
	CHANNELS 6 Xposition Yposition Zposition Yrotation Zrotation Xrotation 
	JOINT Lumbar
	{
		OFFSET 0 0 0
		CHANNELS 3 Zrotation Xrotation Yrotation
		JOINT Neck
		{
			OFFSET 0.00 0.2701 0.00
			CHANNELS 3 Zrotation Xrotation Yrotation
			End Site
			{
				OFFSET 0.00 0.1379 0.00
			}
		}
		JOINT RightShoulder
		{
			OFFSET 0.0119 0.2289 0.1181
			CHANNELS 3 Zrotation Xrotation Yrotation
			JOINT RightElbow
			{
				OFFSET 0.00 -0.1475 0.00
				CHANNELS 2 Zrotation Yrotation
				JOINT RightWrist
				{
					OFFSET 0.00 -0.1605 0.00
					CHANNELS 2 Zrotation Xrotation
					End Site
					{
						OFFSET 0.0040 -0.1068 0.0006
					}
				}
			}
		}
		JOINT LeftShoulder
		{
			OFFSET 0.0119 0.2289 -0.1181
			CHANNELS 3 Zrotation Xrotation Yrotation
			JOINT LeftElbow
			{
				OFFSET 0.00 -0.1475 0.00
				CHANNELS 2 Zrotation Yrotation
				JOINT LeftWrist
				{
					OFFSET 0.00 -0.1605 0.00
					CHANNELS 2 Zrotation Xrotation
					End Site
					{
						OFFSET 0.0040 -0.1068 -0.0006
					}
				}
			}
		}
	}
	JOINT RightHip
	{
		OFFSET 0.0316 -0.0424 0.0458
		CHANNELS 3 Zrotation Xrotation Yrotation
		JOINT RightKnee
		{
			OFFSET 0.00 -0.2438 0.00
			CHANNELS 1 Zrotation
			JOINT RightAnkle
			{
				OFFSET 0.00 -0.2449 0.00
				CHANNELS 3 Zrotation Xrotation Yrotation
				End Site
				{
					OFFSET 0.1237 -0.0542 0.0051
				}
			}
		}
	}
	JOINT LeftHip
	{
		OFFSET 0.0316 -0.0424 -0.0458
		CHANNELS 3 Zrotation Xrotation Yrotation
		JOINT LeftKnee
		{
			OFFSET 0.00 -0.2438 0.00
			CHANNELS 1 Zrotation
			JOINT LeftAnkle
			{
				OFFSET 0.00 -0.2449 0.00
				CHANNELS 3 Zrotation Xrotation Yrotation
				End Site
				{
					OFFSET 0.1237 -0.0542 -0.0051
				}
			}
		}
	}
}
MOTION
Frames: 20
Frame Time: 0.02
0.00464 0.57969 0.00745 176.92281 0 -4.36812 2.68876 2.24759 -13.47948 -36.18887 8.21824 6.53975 136.70314 -42.81765 28.92855 134.02917 136.5234 -55.79311 -10.53125 31.70155 11.60024 -18.95556 15.32846 -85.22799 -7.27392 4.16917 -0.5875 7.58482 9.96972 -6.14643 -4.12292 -2.27306 -4.76419 -1.87947 5.33665 2.25865 -7.36044 5.68675 1.76217 0.54494
0.00427 0.57969 0.00794 176.66861 0 -4.40046 2.65012 2.1851 -13.45613 -36.13491 8.27049 6.53938 136.61038 -42.81505 28.86035 134.02327 136.58961 -55.978 -10.53479 30.72181 10.59626 -17.12147 14.20602 -83.64876 -6.57981 3.59736 -0.58889 7.56635 10.16596 -6.14819 -4.13913 -2.26349 -4.72138 -1.98799 5.31077 2.55724 -7.29954 5.7335 1.75586 0.52795
0.00389 0.57968 0.0084 176.39863 0 -4.43514 2.621 2.12819 -13.43759 -36.10023 8.33382 6.54576 136.5256 -42.80081 28.83709 134.02757 136.63578 -56.11828 -10.53023 29.72838 9.65881 -14.96486 13.40628 -82.78393 -6.57388 3.04562 -0.58559 7.55294 10.36944 -6.15838 -4.15309 -2.25366 -4.67013 -2.1003 5.28919 2.87645 -7.24047 5.78393 1.74539 0.50612
0.0035 0.57968 0.00886 176.13767 0 -4.46895 2.5888 2.06872 -13.41906 -36.06097 8.39275 6.55199 136.44039 -42.79579 28.79076 134.02163 136.69124 -56.27474 -10.53002 28.74473 8.69859 -13.00819 12.49529 -81.60181 -6.2471 2.49922 -0.58466 7.53777 10.56886 -6.16528 -4.16785 -2.24408 -4.62392 -2.21056 5.26591 3.1809 -7.18121 5.83284 1.73809 0.48949
0.00313 0.57967 0.00934 175.86786 0 -4.50207 2.55167 2.00922 -13.39042 -36.00681 8.44926 6.54613 136.34447 -42.77468 28.7549 134.03728 136.74648 -56.44784 -10.52734 27.72987 7.71289 -10.80727 11.46983 -80.35227 -5.93754 1.8853 -0.58278 7.52046 10.77343 -6.16995 -4.18374 -2.23401 -4.57342 -2.32267 5.24161 3.50925 -7.11916 5.88145 1.72558 0.46024
0.00274 0.57967 0.00979 175.61349 0 -4.53704 2.527 1.95123 -13.38428 -35.98722 8.51329 6.5667 136.27194 -42.78351 28.7095 134.01261 136.79665 -56.5766 -10.52755 26.78444 6.79509 -9.0458 10.74651 -79.42646 -5.76176 1.4189 -0.58171 7.50869 10.96803 -6.18134 -4.19656 -2.22492 -4.5296 -2.43141 5.22039 3.79198 -7.06366 5.93142 1.72285 0.45605
0.00227 0.57967 0.01016 175.40144 0 -4.57751 2.53381 1.8953 -13.43941 -36.05825 8.59599 6.6619 136.25895 -42.88535 28.61007 133.85604 136.84481 -56.58533 -10.54027 26.01686 6.03262 -8.57634 10.77215 -79.22433 -5.79161 1.35981 -0.58449 7.51189 11.136 -6.20815 -4.20288 -2.21802 -4.50558 -2.53276 5.20731 3.94729 -7.02257 5.98427 1.74801 0.52313
0.00178 0.57967 0.0105 175.20642 0 -4.61956 2.55291 1.84086 -13.51705 -36.16299 8.68569 6.78285 136.26933 -43.01637 28.50222 133.66167 136.88738 -56.55237 -10.55574 25.32527 5.33843 -8.5628 11.08669 -79.32782 -5.9343 1.44859 -0.58815 7.52031 11.29289 -6.24162 -4.20592 -2.21221 -4.4886 -2.63 5.19706 4.05516 -6.98858 6.03831 1.78311 0.61539
0.0013 0.57967 0.01085 175.0063 0 -4.66024 2.56671 1.78623 -13.58434 -36.25202 8.77186 6.88989 136.27067 -43.12908 28.40937 133.49687 136.9277 -56.54433 -10.5682 24.61177 4.62191 -8.34372 11.26828 -79.29353 -6.02431 1.46743 -0.59109 7.52575 11.45289 -6.2727 -4.20955 -2.20629 -4.46867 -2.72722 5.18508 4.18231 -6.95348 6.09178 1.81373 0.6956
0.00081 0.57967 0.0112 174.79414 0 -4.70375 2.5796 1.72968 -13.65244 -36.34359 8.86015 7.00654 136.26586 -43.26255 28.27202 133.28131 136.98699 -56.5103 -10.5876 23.84271 3.86975 -8.10689 11.46941 -79.27841 -6.14246 1.49831 -0.59522 7.53393 11.62147 -6.30134 -4.21692 -2.19878 -4.44725 -2.83258 5.17517 4.31994 -6.90961 6.14556 1.84413 0.7784
0.00034 0.57966 0.01156 174.61171 0 -4.74168 2.59725 1.67751 -13.72394 -36.43741 8.94521 7.10912 136.27904 -43.36004 28.22341 133.16088 137.00638 -56.52008 -10.59355 23.20957 3.20887 -8.01851 11.69334 -79.28726 -6.22175 1.53912 -0.59712 7.53756 11.76925 -6.33659 -4.21574 -2.1948 -4.43092 -2.91992 5.16154 4.42402 -6.88553 6.19883 1.8773 0.86164
-6e-05 0.57966 0.01192 174.50396 0 -4.76411 2.62429 1.6362 -13.80111 -36.53065 9.02248 7.16721 136.3381 -43.34967 28.43323 133.32508 136.91123 -56.66982 -10.55966 22.91767 2.76807 -8.24027 11.91359 -79.28154 -6.14763 1.57036 -0.5928 7.52761 11.8638 -6.38797 -4.19203 -2.20058 -4.42531 -2.95883 5.13718 4.44838 -6.91554 6.25129 1.91655 0.94158
-0.00043 0.57965 0.01229 174.42625 0 -4.78079 2.65578 1.59941 -13.88062 -36.62456 9.09567 7.2101 136.41402 -43.3024 28.73019 133.58378 136.77737 -56.8636 -10.51259 22.76291 2.41937 -8.59512 12.14449 -79.28712 -6.03055 1.60662 -0.58621 7.51284 11.93742 -6.44579 -4.15981 -2.20984 -4.42491 -2.97966 5.10894 4.44021 -6.96497 6.30298 1.95809 1.02081
-0.00081 0.57965 0.01266 174.33701 0 -4.79989 2.68569 1.56109 -13.95784 -36.71717 9.16878 7.25945 136.48099 -43.27301 28.97979 133.79105 136.66495 -57.03179 -10.4729 22.55571 2.03801 -8.88312 12.36588 -79.28785 -5.94189 1.64097 -0.58055 7.50009 12.01964 -6.50101 -4.13128 -2.21731 -4.42325 -3.00855 5.08232 4.44597 -7.00473 6.35444 1.99801 1.09931
-0.0012 0.57964 0.01302 174.23933 0 -4.81986 2.71421 1.52056 -14.04088 -36.81541 9.25031 7.31153 136.55439 -43.23995 29.2624 134.03341 136.53565 -57.22236 -10.42731 22.30961 1.61981 -9.21398 12.61656 -79.29812 -5.82008 1.67869 -0.5753 7.48825 12.10553 -6.55523 -4.10331 -2.22564 -4.41726 -3.038 5.0564 4.45381 -7.04836 6.40845 2.04071 1.18311
-0.00156 0.57964 0.0134 174.1662 0 -4.83664 2.74646 1.48575 -14.11224 -36.90136 9.31327 7.35403 136.61784 -43.20539 29.49642 134.22488 136.43294 -57.37693 -10.39101 22.17587 1.29986 -9.48092 12.80585 -79.28757 -5.75551 1.70895 -0.5687 7.47331 12.17869 -6.6128 -4.07232 -2.23304 -4.42129 -3.062 5.02807 4.45008 -7.0884 6.45686 2.07804 1.25538
-0.00185 0.57963 0.01381 174.15299 0 -4.84594 2.78847 1.46494 -14.14909 -36.95528 9.32566 7.37308 136.65187 -43.17576 29.58042 134.25951 136.40844 -57.42504 -10.3821 22.32075 1.22399 -9.53976 12.81339 -79.21062 -5.85832 1.71415 -0.55855 7.45095 12.22428 -6.67955 -4.03408 -2.23672 -4.45297 -3.07557 4.99379 4.42348 -7.11419 6.4909 2.10005 1.29609
-0.00212 0.57962 0.01423 174.16347 0 -4.85223 2.83389 1.44985 -14.17428 -36.99627 9.31952 7.38297 136.67482 -43.14581 29.61169 134.23881 136.41284 -57.43507 -10.38322 22.57327 1.24443 -9.52703 12.75909 -79.11188 -6.01957 1.71157 -0.5472 7.42561 12.25746 -6.74912 -3.9933 -2.23939 -4.49434 -3.08424 4.95724 4.38636 -7.1356 6.51918 2.11655 1.32511
-0.0024 0.57961 0.01465 174.16334 0 -4.85996 2.87737 1.43254 -14.20586 -37.04164 9.32207 7.3974 136.70121 -43.11576 29.66335 134.23885 136.40727 -57.46009 -10.38079 22.77479 1.22337 -9.54444 12.73787 -79.02551 -6.1545 1.71388 -0.53666 7.40167 12.29467 -6.81643 -3.95434 -2.24273 -4.53037 -3.0951 4.9219 4.35358 -7.15864 6.54952 2.13549 1.35927
-0.00269 0.5796 0.01507 174.16358 0 -4.86723 2.92278 1.41373 -14.23308 -37.09333 9.32341 7.40986 136.73468 -43.08524 29.73248 134.25978 136.38748 -57.49574 -10.37384 22.98972 1.1956 -9.57771 12.69612 -78.92922 -6.28797 1.71058 -0.52489 7.37744 12.33763 -6.88821 -3.91226 -2.24534 -4.57033 -3.10561 4.88572 4.32161 -7.18376 6.58218 2.15469 1.39403
